<svg xmlns="http://www.w3.org/2000/svg" viewBox="0 0 200 200" width="200" height="200">
  <defs><linearGradient id="g" x1="0" y1="0" x2="1" y2="1">
    <stop offset="0" stop-color="#6366f1"/><stop offset="1" stop-color="#8b5cf6"/></linearGradient></defs>
  <rect x="3" y="3" width="194" height="194" rx="46" fill="url(#g)"/>
  <path d="M100 64V44" stroke="#94A3B8" stroke-width="5" stroke-linecap="round"/>
  <circle cx="100" cy="36" r="9" fill="#22d3ee"/>
  <rect x="60" y="62" width="80" height="70" rx="24" fill="#F1F5F9"/>
  <rect x="72" y="76" width="56" height="40" rx="14" fill="#0B0E14"/>
  <circle cx="89" cy="94" r="6.5" fill="#22d3ee"/><circle cx="111" cy="94" r="6.5" fill="#22d3ee"/>
  <path d="M92 105q8 7 16 0" stroke="#22d3ee" stroke-width="3" fill="none" stroke-linecap="round"/>
  <ellipse cx="76" cy="110" rx="4" ry="2.6" fill="#FDA4AF" opacity=".5"/>
  <ellipse cx="124" cy="110" rx="4" ry="2.6" fill="#FDA4AF" opacity=".5"/>
  <rect x="76" y="138" width="48" height="36" rx="15" fill="#E2E8F0"/>
  <rect x="56" y="142" width="18" height="11" rx="5.5" fill="#CBD5E1"/>
  <rect x="126" y="142" width="18" height="11" rx="5.5" fill="#CBD5E1"/>
  <path d="M94 152l5 5-5 5" stroke="#22d3ee" stroke-width="3" fill="none" stroke-linecap="round" stroke-linejoin="round"/>
  <path d="M103 162h7" stroke="#22d3ee" stroke-width="3" stroke-linecap="round"/>
  <rect x="80" y="174" width="16" height="8" rx="4" fill="#CBD5E1"/>
  <rect x="104" y="174" width="16" height="8" rx="4" fill="#CBD5E1"/>
</svg>